<svg xmlns="http://www.w3.org/2000/svg" width="61.745" height="53.995" viewBox="0 0 61.745 53.995">
  <g id="high-five" transform="translate(0)">
    <path id="패스_3" data-name="패스 3" d="M244.585,1.792a1.792,1.792,0,1,0-3.585,0v7.68a1.792,1.792,0,1,0,3.585,0Zm0,0" transform="translate(-211.92)" fill="#fff"/>
    <path id="패스_4" data-name="패스 4" d="M148.963,55.1a1.792,1.792,0,0,0,2.535-2.535l-3.84-3.84a1.792,1.792,0,0,0-2.535,2.535Zm0,0" transform="translate(-127.138 -42.439)" fill="#fff"/>
    <path id="패스_5" data-name="패스 5" d="M307.059,55.624a1.786,1.786,0,0,0,1.267-.525l3.84-3.84a1.792,1.792,0,1,0-2.535-2.535l-3.84,3.84a1.792,1.792,0,0,0,1.267,3.06Zm0,0" transform="translate(-268.406 -42.439)" fill="#fff"/>
    <path id="패스_6" data-name="패스 6" d="M25.406,141.505l-.053.044-7.75,6.643a3.972,3.972,0,0,1-2.582.955H9.47A9.465,9.465,0,0,0,0,158.618V175.9a1.793,1.793,0,0,0,1.792,1.793H17.151a1.793,1.793,0,0,0,1.792-1.793V159.445l9.121-7.818a2.1,2.1,0,0,0,.734-1.6v-6.882a2.092,2.092,0,0,0-3.393-1.644Zm0,0" transform="translate(0 -123.698)" fill="#fff"/>
    <path id="패스_7" data-name="패스 7" d="M290.329,149.148h-5.551a3.97,3.97,0,0,1-2.582-.955l-7.75-6.643-.053-.044A2.092,2.092,0,0,0,271,143.149v6.882a2.1,2.1,0,0,0,.734,1.6l9.121,7.818V175.9a1.792,1.792,0,0,0,1.793,1.793h15.359A1.792,1.792,0,0,0,299.8,175.9V158.618a9.465,9.465,0,0,0-9.47-9.47Zm0,0" transform="translate(-238.054 -123.697)" fill="#fff"/>
    <path id="패스_8" data-name="패스 8" d="M31.171,90.017a7.552,7.552,0,1,0-7.552,7.553A7.561,7.561,0,0,0,31.171,90.017Zm0,0" transform="translate(-14.147 -72.484)" fill="#fff"/>
    <path id="패스_9" data-name="패스 9" d="M384.64,90.017a7.552,7.552,0,1,0-7.552,7.553A7.561,7.561,0,0,0,384.64,90.017Zm0,0" transform="translate(-324.815 -72.484)" fill="#fff"/>
  </g>
</svg>
