<svg xmlns="http://www.w3.org/2000/svg" width="48.5" height="59.93" viewBox="0 0 48.5 59.93">
  <g id="passion" transform="translate(-1.564 -4.43)">
    <g id="그룹_33" data-name="그룹 33" transform="translate(1.564 4.43)">
      <path id="패스_10" data-name="패스 10" d="M52.686,18.769a1.924,1.924,0,0,0-1.512-1.725,1.983,1.983,0,0,0-2.14.9,31.761,31.761,0,0,1-5.776,6.992c.348-5.416,2.859-12.793,4.025-15.7a1.858,1.858,0,0,0-.348-1.942A1.991,1.991,0,0,0,45,6.682C41.3,7.529,37.381,10.257,34.85,12.3A22.727,22.727,0,0,0,26.685.358a2.011,2.011,0,0,0-2.04-.147,1.9,1.9,0,0,0-1.066,1.695A102.651,102.651,0,0,1,22.813,12.8c-2.839-2.183-7.675-5.529-10.8-6.117a2.049,2.049,0,0,0-1.93.6,1.867,1.867,0,0,0-.347,1.943c1.166,2.911,3.673,10.288,4.025,15.7a31.761,31.761,0,0,1-5.776-6.992,1.98,1.98,0,0,0-2.14-.9A1.922,1.922,0,0,0,4.33,18.769c-.045.624-.739,11.4,3.343,18.856a12.907,12.907,0,0,1,1.818-5.96,35.933,35.933,0,0,1-1.171-6.74,36.663,36.663,0,0,0,3.721,3.647A13.736,13.736,0,0,1,17.685,25.5a52.872,52.872,0,0,0-2.835-13.577,40.307,40.307,0,0,1,7.279,5.465,2.611,2.611,0,0,0,2.075.7,2.015,2.015,0,0,0,1.74-1.513A61.115,61.115,0,0,0,27.362,6.327a17.43,17.43,0,0,1,4.176,9.85,1.914,1.914,0,0,0,1.268,1.65,2,2,0,0,0,2.075-.438,40.253,40.253,0,0,1,7.279-5.465A52.872,52.872,0,0,0,39.325,25.5a13.712,13.712,0,0,1,5.645,3.072,36.8,36.8,0,0,0,3.721-3.647,36.049,36.049,0,0,1-1.17,6.74,12.936,12.936,0,0,1,1.817,5.96C53.426,30.17,52.731,19.392,52.686,18.769Z" transform="translate(-4.258 0)" fill="#fff"/>
      <path id="패스_11" data-name="패스 11" d="M33.9,23.107a10.047,10.047,0,0,0-6.945,2.743,10.167,10.167,0,0,0-13.92.025,9.186,9.186,0,0,0,0,13.375c.189.181,9.327,8.9,12.689,12.113a1.786,1.786,0,0,0,2.455,0c3.366-3.211,12.5-11.934,12.689-12.113a9.184,9.184,0,0,0,0-13.375A10.036,10.036,0,0,0,33.9,23.107Z" transform="translate(-2.699 8.079)" fill="#fff"/>
    </g>
  </g>
</svg>
