<svg xmlns="http://www.w3.org/2000/svg" width="30.934" height="54" viewBox="0 0 30.934 54">
  <g id="man-carrying-package" transform="translate(0)">
    <path id="패스_17" data-name="패스 17" d="M43.113,33.875l-5.146-.091a.9.9,0,0,1-.822-.716L35.734,24.1a1.685,1.685,0,0,0-.168-.53,1.8,1.8,0,0,0-1.674-1.157l-8.283.36A1.914,1.914,0,0,0,23.8,24.663L23.8,42.819c-.01.874-.05,2.141-.1,2.949l-.25,4.426a6.851,6.851,0,0,1-.837,2.664l-3.637,5.9a2.132,2.132,0,0,0,.78,2.993l.814.453a2.248,2.248,0,0,0,1.1.283,2.305,2.305,0,0,0,1.955-1.079l3.637-5.9a9.409,9.409,0,0,0,1.128-3.183l1.047-8.095,1.133-.11,4.874,7.526a7,7,0,0,1,.909,2.649l.551,6.335a1.767,1.767,0,0,0,1.772,1.7,2.049,2.049,0,0,0,.687-.121l.877-.311a2.782,2.782,0,0,0,1.772-2.753l-.551-6.333a11.113,11.113,0,0,0-.88-3.241L35.9,39.731c-.011-.023-.026-.044-.037-.067l-.02-1.75,7.476-.308a1.785,1.785,0,0,0,1.716-1.928A2,2,0,0,0,43.113,33.875Z" transform="translate(-18.66 -8.493)" fill="#fff"/>
    <path id="패스_18" data-name="패스 18" d="M30.581,11.873a5.937,5.937,0,1,0-5.6-3.956A5.915,5.915,0,0,0,30.581,11.873Z" transform="translate(-20.971)" fill="#fff"/>
    <path id="패스_19" data-name="패스 19" d="M61.025,21.85a1.856,1.856,0,0,0-1.962-1.712l-7.829.522a1.84,1.84,0,0,0-1.711,1.961l.488,7.018a1.851,1.851,0,0,0,1.84,1.717c.04,0,.082,0,.123,0l7.829-.522a1.84,1.84,0,0,0,1.711-1.961Z" transform="translate(-30.584 -7.732)" fill="#fff"/>
  </g>
</svg>
