<svg id="shovel" xmlns="http://www.w3.org/2000/svg" width="57.201" height="54" viewBox="0 0 57.201 54">
  <g id="그룹_35" data-name="그룹 35" transform="translate(0 23.677)">
    <g id="그룹_34" data-name="그룹 34">
      <path id="패스_12" data-name="패스 12" d="M26.14,240.293a2.681,2.681,0,0,0-.226-.99l-.674-1.532-14.33-11.286a8.733,8.733,0,0,0-1.584,3.939l-1.25,9.07L.363,252.777A2.684,2.684,0,0,0,5,255.472l7.981-13.741a2.684,2.684,0,0,0,.338-.984l1.294-9.447,2.551,1.45,3.624,8.241.445,13.224a2.674,2.674,0,0,0,.955,1.96,3.262,3.262,0,0,1,1.1-3.129l3.184-2.659Z" transform="translate(0.001 -226.486)" fill="#fff"/>
    </g>
  </g>
  <g id="그룹_37" data-name="그룹 37" transform="translate(24.876 0)">
    <g id="그룹_36" data-name="그룹 36" transform="translate(0 0)">
      <circle id="타원_6" data-name="타원 6" cx="5.085" cy="5.085" r="5.085" fill="#fff"/>
    </g>
  </g>
  <g id="그룹_39" data-name="그룹 39" transform="translate(26.799 36.222)">
    <g id="그룹_38" data-name="그룹 38">
      <path id="패스_13" data-name="패스 13" d="M239.888,338.557l.082.355a2.241,2.241,0,0,0,2.539,1.709Z" transform="translate(-239.888 -338.557)" fill="#fff"/>
    </g>
  </g>
  <g id="그룹_41" data-name="그룹 41" transform="translate(0.915 11.49)">
    <g id="그룹_40" data-name="그룹 40" transform="translate(0 0)">
      <path id="패스_14" data-name="패스 14" d="M10.254,117.454a1.281,1.281,0,0,0-1.585,2.013l.369.291,1.837-1.815Z" transform="translate(-8.18 -117.179)" fill="#fff"/>
    </g>
  </g>
  <g id="그룹_43" data-name="그룹 43" transform="translate(3.231 8.228)">
    <g id="그룹_42" data-name="그룹 42">
      <path id="패스_15" data-name="패스 15" d="M55.422,96.642a3.435,3.435,0,0,0-1.29-4.684l-5.327-3.026a3.435,3.435,0,0,0-3.632.148l2.926,1.6L38.774,88.1a2.315,2.315,0,0,0-2.124.479l-6.956,6.029a2.3,2.3,0,0,0,3.018,3.482l6.023-5.22,8.445,2.339-5.84-.088-1.56,2.745,9.458,7.449.687-1.816.633,2.855,5.257,4.14c-1.6-6.912-1.047-4.56-2.406-10.306Z" transform="translate(-28.899 -88.017)" fill="#fff"/>
    </g>
  </g>
  <g id="그룹_45" data-name="그룹 45" transform="translate(8.815 17.909)">
    <g id="그룹_44" data-name="그룹 44">
      <path id="패스_16" data-name="패스 16" d="M127.32,208.675l-10.352-12.06a4.786,4.786,0,0,0-6.7-.556l-1.051.878L81.236,174.9l-1.971,1.709,27.943,22.007L95.012,208.8a1.2,1.2,0,0,0,.77,2.122h30.5A1.362,1.362,0,0,0,127.32,208.675Z" transform="translate(-79.265 -174.9)" fill="#fff"/>
    </g>
  </g>
</svg>
